<mxfile host="app.diagrams.net" agent="Mozilla/5.0 (Windows NT 10.0; Win64; x64) AppleWebKit/537.36 (KHTML, like Gecko) Chrome/135.0.0.0 Safari/537.36 Edg/135.0.0.0" version="26.2.13">
  <diagram name="Page-1" id="2YBvvXClWsGukQMizWep">
    <mxGraphModel dx="1420" dy="786" grid="1" gridSize="10" guides="1" tooltips="1" connect="1" arrows="1" fold="1" page="1" pageScale="1" pageWidth="850" pageHeight="1100" math="0" shadow="0">
      <root>
        <mxCell id="0" />
        <mxCell id="1" parent="0" />
        <mxCell id="MhszPqJc7IMkMifYm2fu-1" value="&lt;h1 style=&quot;margin-top: 0px;&quot;&gt;Workflow API Mode&lt;/h1&gt;&lt;p&gt;API mode refers to a flow where the workflow controls the application ones initiated. The application API will allow workflow to access application parameters for its messaging and updating functions.&lt;br&gt;&lt;/p&gt;" style="text;html=1;whiteSpace=wrap;overflow=hidden;rounded=0;" vertex="1" parent="1">
          <mxGeometry x="12.5" y="10" width="827.5" height="80" as="geometry" />
        </mxCell>
        <mxCell id="MhszPqJc7IMkMifYm2fu-2" style="edgeStyle=orthogonalEdgeStyle;rounded=0;orthogonalLoop=1;jettySize=auto;html=1;exitX=0.5;exitY=1;exitDx=0;exitDy=0;strokeWidth=3;" edge="1" parent="1" source="MhszPqJc7IMkMifYm2fu-3">
          <mxGeometry relative="1" as="geometry">
            <mxPoint x="60" y="640" as="targetPoint" />
          </mxGeometry>
        </mxCell>
        <mxCell id="MhszPqJc7IMkMifYm2fu-3" value="APP" style="rounded=1;whiteSpace=wrap;html=1;fillColor=#ffe6cc;strokeColor=#d79b00;" vertex="1" parent="1">
          <mxGeometry x="20" y="100" width="80" height="40" as="geometry" />
        </mxCell>
        <mxCell id="MhszPqJc7IMkMifYm2fu-4" style="edgeStyle=orthogonalEdgeStyle;rounded=0;orthogonalLoop=1;jettySize=auto;html=1;exitX=0.5;exitY=1;exitDx=0;exitDy=0;strokeWidth=3;" edge="1" parent="1" source="MhszPqJc7IMkMifYm2fu-5">
          <mxGeometry relative="1" as="geometry">
            <mxPoint x="300" y="640" as="targetPoint" />
          </mxGeometry>
        </mxCell>
        <mxCell id="MhszPqJc7IMkMifYm2fu-5" value="WF" style="rounded=1;whiteSpace=wrap;html=1;fillColor=#dae8fc;strokeColor=#6c8ebf;" vertex="1" parent="1">
          <mxGeometry x="260" y="100" width="80" height="40" as="geometry" />
        </mxCell>
        <mxCell id="MhszPqJc7IMkMifYm2fu-6" style="edgeStyle=orthogonalEdgeStyle;rounded=0;orthogonalLoop=1;jettySize=auto;html=1;exitX=0.5;exitY=1;exitDx=0;exitDy=0;strokeWidth=3;" edge="1" parent="1" source="MhszPqJc7IMkMifYm2fu-7">
          <mxGeometry relative="1" as="geometry">
            <mxPoint x="530" y="640" as="targetPoint" />
          </mxGeometry>
        </mxCell>
        <mxCell id="MhszPqJc7IMkMifYm2fu-7" value="NTFY" style="rounded=1;whiteSpace=wrap;html=1;fillColor=#d5e8d4;strokeColor=#82b366;" vertex="1" parent="1">
          <mxGeometry x="490" y="100" width="80" height="40" as="geometry" />
        </mxCell>
        <mxCell id="MhszPqJc7IMkMifYm2fu-8" style="edgeStyle=orthogonalEdgeStyle;rounded=0;orthogonalLoop=1;jettySize=auto;html=1;exitX=0.5;exitY=1;exitDx=0;exitDy=0;strokeWidth=3;" edge="1" parent="1" source="MhszPqJc7IMkMifYm2fu-9">
          <mxGeometry relative="1" as="geometry">
            <mxPoint x="780" y="640" as="targetPoint" />
            <Array as="points">
              <mxPoint x="780" y="640" />
            </Array>
          </mxGeometry>
        </mxCell>
        <mxCell id="MhszPqJc7IMkMifYm2fu-9" value="CLIENT" style="rounded=1;whiteSpace=wrap;html=1;fillColor=#f8cecc;strokeColor=#b85450;" vertex="1" parent="1">
          <mxGeometry x="740" y="100" width="80" height="40" as="geometry" />
        </mxCell>
        <mxCell id="MhszPqJc7IMkMifYm2fu-10" value="" style="endArrow=classic;html=1;rounded=0;strokeWidth=2;strokeColor=light-dark(#3399FF,#EDEDED);" edge="1" parent="1">
          <mxGeometry width="50" height="50" relative="1" as="geometry">
            <mxPoint x="60" y="160" as="sourcePoint" />
            <mxPoint x="300" y="160" as="targetPoint" />
          </mxGeometry>
        </mxCell>
        <mxCell id="MhszPqJc7IMkMifYm2fu-11" value="" style="endArrow=classic;html=1;rounded=0;strokeColor=#3399FF;strokeWidth=2;" edge="1" parent="1">
          <mxGeometry width="50" height="50" relative="1" as="geometry">
            <mxPoint x="300" y="160" as="sourcePoint" />
            <mxPoint x="530" y="160" as="targetPoint" />
          </mxGeometry>
        </mxCell>
        <mxCell id="MhszPqJc7IMkMifYm2fu-12" value="Workflow send notifications. Notifications messages are taken from message templates. WF takes templates from its own, fills in values from the transaction and send to notification. Each user in sequence type will receive notification." style="text;html=1;align=center;verticalAlign=middle;whiteSpace=wrap;rounded=0;" vertex="1" parent="1">
          <mxGeometry x="310" y="173" width="200" height="80" as="geometry" />
        </mxCell>
        <mxCell id="MhszPqJc7IMkMifYm2fu-13" value="Client sends action to the WF" style="text;html=1;align=center;verticalAlign=middle;whiteSpace=wrap;rounded=0;" vertex="1" parent="1">
          <mxGeometry x="540" y="270" width="210" height="30" as="geometry" />
        </mxCell>
        <mxCell id="MhszPqJc7IMkMifYm2fu-14" value="Notifications sent via e-mail, telegram, etc" style="text;html=1;align=center;verticalAlign=middle;whiteSpace=wrap;rounded=0;" vertex="1" parent="1">
          <mxGeometry x="540" y="160" width="230" height="30" as="geometry" />
        </mxCell>
        <mxCell id="MhszPqJc7IMkMifYm2fu-15" value="" style="endArrow=classic;html=1;rounded=0;strokeColor=#3399FF;strokeWidth=2;" edge="1" parent="1">
          <mxGeometry width="50" height="50" relative="1" as="geometry">
            <mxPoint x="530" y="160" as="sourcePoint" />
            <mxPoint x="780" y="160" as="targetPoint" />
          </mxGeometry>
        </mxCell>
        <mxCell id="MhszPqJc7IMkMifYm2fu-16" value="" style="endArrow=classic;html=1;rounded=0;strokeWidth=2;strokeColor=light-dark(#FF9933,#EDEDED);" edge="1" parent="1">
          <mxGeometry width="50" height="50" relative="1" as="geometry">
            <mxPoint x="780" y="270" as="sourcePoint" />
            <mxPoint x="300" y="270" as="targetPoint" />
          </mxGeometry>
        </mxCell>
        <mxCell id="MhszPqJc7IMkMifYm2fu-17" value="Creates a transaction with a route.&lt;br&gt;Triggers the start of the workflow." style="text;html=1;align=center;verticalAlign=middle;whiteSpace=wrap;rounded=0;" vertex="1" parent="1">
          <mxGeometry x="70" y="170" width="210" height="30" as="geometry" />
        </mxCell>
        <mxCell id="MhszPqJc7IMkMifYm2fu-20" value="" style="endArrow=classic;html=1;rounded=0;strokeColor=#3399FF;strokeWidth=2;" edge="1" parent="1">
          <mxGeometry width="50" height="50" relative="1" as="geometry">
            <mxPoint x="60" y="330" as="sourcePoint" />
            <mxPoint x="300" y="330" as="targetPoint" />
          </mxGeometry>
        </mxCell>
        <mxCell id="MhszPqJc7IMkMifYm2fu-22" value="" style="endArrow=classic;html=1;rounded=0;strokeColor=#3399FF;strokeWidth=2;" edge="1" parent="1">
          <mxGeometry width="50" height="50" relative="1" as="geometry">
            <mxPoint x="530" y="330" as="sourcePoint" />
            <mxPoint x="780" y="330" as="targetPoint" />
          </mxGeometry>
        </mxCell>
        <mxCell id="MhszPqJc7IMkMifYm2fu-23" value="Notifications sent via e-mail, telegram, etc" style="text;html=1;align=center;verticalAlign=middle;whiteSpace=wrap;rounded=0;" vertex="1" parent="1">
          <mxGeometry x="540" y="345" width="230" height="20" as="geometry" />
        </mxCell>
        <mxCell id="MhszPqJc7IMkMifYm2fu-26" value="App handles the API call and responds" style="text;html=1;align=center;verticalAlign=middle;whiteSpace=wrap;rounded=0;" vertex="1" parent="1">
          <mxGeometry x="70" y="340" width="210" height="30" as="geometry" />
        </mxCell>
        <mxCell id="MhszPqJc7IMkMifYm2fu-28" value="" style="endArrow=classic;html=1;rounded=0;strokeColor=#3399FF;strokeWidth=2;" edge="1" parent="1">
          <mxGeometry width="50" height="50" relative="1" as="geometry">
            <mxPoint x="300" y="330" as="sourcePoint" />
            <mxPoint x="530" y="330" as="targetPoint" />
          </mxGeometry>
        </mxCell>
        <mxCell id="MhszPqJc7IMkMifYm2fu-29" value="WF sends notifications to next sequence or rejection" style="text;html=1;align=center;verticalAlign=middle;whiteSpace=wrap;rounded=0;" vertex="1" parent="1">
          <mxGeometry x="310" y="340" width="215" height="30" as="geometry" />
        </mxCell>
        <mxCell id="MhszPqJc7IMkMifYm2fu-30" value="" style="endArrow=classic;html=1;rounded=0;strokeColor=#3399FF;strokeWidth=2;" edge="1" parent="1">
          <mxGeometry width="50" height="50" relative="1" as="geometry">
            <mxPoint x="530" y="490" as="sourcePoint" />
            <mxPoint x="780" y="490" as="targetPoint" />
          </mxGeometry>
        </mxCell>
        <mxCell id="MhszPqJc7IMkMifYm2fu-35" value="App handles the API call and responds" style="text;html=1;align=center;verticalAlign=middle;whiteSpace=wrap;rounded=0;" vertex="1" parent="1">
          <mxGeometry x="80" y="418" width="210" height="30" as="geometry" />
        </mxCell>
        <mxCell id="MhszPqJc7IMkMifYm2fu-36" value="" style="endArrow=classic;html=1;rounded=0;strokeColor=#3399FF;strokeWidth=2;" edge="1" parent="1">
          <mxGeometry width="50" height="50" relative="1" as="geometry">
            <mxPoint x="60" y="410" as="sourcePoint" />
            <mxPoint x="300" y="410" as="targetPoint" />
          </mxGeometry>
        </mxCell>
        <mxCell id="MhszPqJc7IMkMifYm2fu-37" value="WF sends notifications to next sequence or rejection" style="text;html=1;align=center;verticalAlign=middle;whiteSpace=wrap;rounded=0;" vertex="1" parent="1">
          <mxGeometry x="300" y="418" width="215" height="30" as="geometry" />
        </mxCell>
        <mxCell id="MhszPqJc7IMkMifYm2fu-38" value="" style="endArrow=classic;html=1;rounded=0;strokeColor=#3399FF;strokeWidth=2;" edge="1" parent="1">
          <mxGeometry width="50" height="50" relative="1" as="geometry">
            <mxPoint x="301.25" y="410" as="sourcePoint" />
            <mxPoint x="530" y="410" as="targetPoint" />
          </mxGeometry>
        </mxCell>
        <mxCell id="MhszPqJc7IMkMifYm2fu-40" value="" style="endArrow=classic;html=1;rounded=0;strokeWidth=2;strokeColor=light-dark(#FF9933,#EDEDED);" edge="1" parent="1">
          <mxGeometry width="50" height="50" relative="1" as="geometry">
            <mxPoint x="300" y="270" as="sourcePoint" />
            <mxPoint x="60" y="270" as="targetPoint" />
          </mxGeometry>
        </mxCell>
        <mxCell id="MhszPqJc7IMkMifYm2fu-41" value="WF sends client action via API. Success or failure will determine app response." style="text;html=1;align=center;verticalAlign=middle;whiteSpace=wrap;rounded=0;" vertex="1" parent="1">
          <mxGeometry x="70" y="290" width="210" height="30" as="geometry" />
        </mxCell>
        <mxCell id="MhszPqJc7IMkMifYm2fu-43" value="" style="endArrow=classic;html=1;rounded=0;strokeWidth=2;strokeColor=light-dark(#FF9933,#EDEDED);" edge="1" parent="1">
          <mxGeometry width="50" height="50" relative="1" as="geometry">
            <mxPoint x="780" y="380" as="sourcePoint" />
            <mxPoint x="300" y="380" as="targetPoint" />
          </mxGeometry>
        </mxCell>
        <mxCell id="MhszPqJc7IMkMifYm2fu-44" value="Client sends action to the WF" style="text;html=1;align=center;verticalAlign=middle;whiteSpace=wrap;rounded=0;" vertex="1" parent="1">
          <mxGeometry x="540" y="380" width="210" height="30" as="geometry" />
        </mxCell>
        <mxCell id="MhszPqJc7IMkMifYm2fu-45" value="" style="endArrow=classic;html=1;rounded=0;strokeWidth=2;strokeColor=light-dark(#FF9933,#EDEDED);" edge="1" parent="1">
          <mxGeometry width="50" height="50" relative="1" as="geometry">
            <mxPoint x="300" y="380" as="sourcePoint" />
            <mxPoint x="60" y="380" as="targetPoint" />
          </mxGeometry>
        </mxCell>
        <mxCell id="MhszPqJc7IMkMifYm2fu-46" value="WF sends client action via API." style="text;html=1;align=center;verticalAlign=middle;whiteSpace=wrap;rounded=0;" vertex="1" parent="1">
          <mxGeometry x="80" y="380" width="210" height="30" as="geometry" />
        </mxCell>
        <mxCell id="MhszPqJc7IMkMifYm2fu-48" value="Notifications sent via e-mail, telegram, etc" style="text;html=1;align=center;verticalAlign=middle;whiteSpace=wrap;rounded=0;" vertex="1" parent="1">
          <mxGeometry x="540" y="495" width="230" height="20" as="geometry" />
        </mxCell>
        <mxCell id="MhszPqJc7IMkMifYm2fu-49" value="" style="endArrow=classic;html=1;rounded=0;strokeWidth=2;strokeColor=light-dark(#FF9933,#EDEDED);" edge="1" parent="1">
          <mxGeometry width="50" height="50" relative="1" as="geometry">
            <mxPoint x="780" y="460" as="sourcePoint" />
            <mxPoint x="300" y="460" as="targetPoint" />
          </mxGeometry>
        </mxCell>
        <mxCell id="MhszPqJc7IMkMifYm2fu-51" value="Client sends action to the WF" style="text;html=1;align=center;verticalAlign=middle;whiteSpace=wrap;rounded=0;" vertex="1" parent="1">
          <mxGeometry x="537.5" y="460" width="210" height="30" as="geometry" />
        </mxCell>
        <mxCell id="MhszPqJc7IMkMifYm2fu-52" value="" style="endArrow=classic;html=1;rounded=0;strokeWidth=2;strokeColor=light-dark(#FF9933,#EDEDED);" edge="1" parent="1">
          <mxGeometry width="50" height="50" relative="1" as="geometry">
            <mxPoint x="300" y="460" as="sourcePoint" />
            <mxPoint x="60" y="460" as="targetPoint" />
          </mxGeometry>
        </mxCell>
        <mxCell id="MhszPqJc7IMkMifYm2fu-53" value="WF sends client action via API." style="text;html=1;align=center;verticalAlign=middle;whiteSpace=wrap;rounded=0;" vertex="1" parent="1">
          <mxGeometry x="80" y="460" width="210" height="30" as="geometry" />
        </mxCell>
        <mxCell id="MhszPqJc7IMkMifYm2fu-54" value="" style="endArrow=classic;html=1;rounded=0;strokeColor=#3399FF;strokeWidth=2;" edge="1" parent="1">
          <mxGeometry width="50" height="50" relative="1" as="geometry">
            <mxPoint x="60" y="490" as="sourcePoint" />
            <mxPoint x="300" y="490" as="targetPoint" />
          </mxGeometry>
        </mxCell>
        <mxCell id="MhszPqJc7IMkMifYm2fu-55" value="App handles the API call and responds" style="text;html=1;align=center;verticalAlign=middle;whiteSpace=wrap;rounded=0;" vertex="1" parent="1">
          <mxGeometry x="70" y="500" width="210" height="30" as="geometry" />
        </mxCell>
        <mxCell id="MhszPqJc7IMkMifYm2fu-56" value="" style="endArrow=classic;html=1;rounded=0;strokeColor=#3399FF;strokeWidth=2;" edge="1" parent="1">
          <mxGeometry width="50" height="50" relative="1" as="geometry">
            <mxPoint x="290" y="489" as="sourcePoint" />
            <mxPoint x="530" y="489" as="targetPoint" />
          </mxGeometry>
        </mxCell>
        <mxCell id="MhszPqJc7IMkMifYm2fu-57" value="WF determines the end of the flow, sends final notifications" style="text;html=1;align=center;verticalAlign=middle;whiteSpace=wrap;rounded=0;" vertex="1" parent="1">
          <mxGeometry x="310" y="500" width="215" height="30" as="geometry" />
        </mxCell>
      </root>
    </mxGraphModel>
  </diagram>
</mxfile>
